<svg xmlns="http://www.w3.org/2000/svg" xmlns:xlink="http://www.w3.org/1999/xlink" version="1.1" viewBox="0 0 64 64" style="enable-background:new 0 0 64 64;" xml:space="preserve"><g id="flag"></g><g id="dwarf"></g><g id="weapon"></g><g id="magic_potion"></g><g id="magic_fire"></g><g id="elf"></g><g id="crown"></g><g id="tower"></g><g id="magic_broom"></g><g id="knight"></g><g id="magic_book"></g><g id="unicorn"></g><g id="wizard"></g><g id="witch"></g><g id="magic_wand"></g><g id="queen"></g><g id="forest"></g><g id="home_tree"></g><g id="king"><g><path d="M27,33.5c0.6,0,1-0.4,1-1c0-0.3,0.2-0.5,0.5-0.5s0.5,0.2,0.5,0.5c0,0.6,0.4,1,1,1s1-0.4,1-1c0-1.4-1.1-2.5-2.5-2.5    S26,31.1,26,32.5C26,33.1,26.4,33.5,27,33.5z"></path><path d="M34,33.5c0.6,0,1-0.4,1-1c0-0.3,0.2-0.5,0.5-0.5s0.5,0.2,0.5,0.5c0,0.6,0.4,1,1,1s1-0.4,1-1c0-1.4-1.1-2.5-2.5-2.5    S33,31.1,33,32.5C33,33.1,33.4,33.5,34,33.5z"></path><path d="M32,42c1.1,0,2.1-0.5,2.8-1.4c0.3-0.4,0.2-1.1-0.2-1.4c-0.4-0.3-1.1-0.2-1.4,0.2c-0.6,0.8-1.8,0.8-2.4,0    c-0.3-0.4-1-0.5-1.4-0.2c-0.4,0.3-0.5,1-0.2,1.4C29.9,41.5,30.9,42,32,42z"></path><path d="M40.8,47c2.6-3.2,4.2-7.3,4.2-11.7V35c2.2,0,4-1.8,4-4c0-0.8-0.2-1.5-0.6-2.1c0.4-0.2,0.6-0.5,0.6-0.9v-4c0-0.6-0.4-1-1-1    h-0.7l1.8-7c1.6,0,3-1.4,3-3c0-1.7-1.3-3-3-3s-3,1.3-3,3c0,0.1,0,0.1,0,0.2l-3,1.3v-3.7c1.2-0.4,2-1.5,2-2.8c0-1.7-1.3-3-3-3    s-3,1.3-3,3c0,0.5,0.1,0.9,0.3,1.3l-3,3l-2.1-4.2C34.7,7.5,35,6.8,35,6c0-1.7-1.3-3-3-3s-3,1.3-3,3c0,0.8,0.3,1.5,0.8,2.1    l-2.1,4.2l-3-3C24.9,8.9,25,8.5,25,8c0-1.7-1.3-3-3-3s-3,1.3-3,3c0,1.3,0.8,2.4,2,2.8v3.7l-3-1.3c0-0.1,0-0.1,0-0.2    c0-1.7-1.3-3-3-3s-3,1.3-3,3c0,1.6,1.3,3,3,3l1.8,7H16c-0.6,0-1,0.4-1,1v4c0,0.4,0.2,0.8,0.6,0.9C15.2,29.5,15,30.2,15,31    c0,2.2,1.8,4,4,4v0.4c0,4.4,1.5,8.5,4.2,11.7c-3.2,0.2-6.1,1.5-8.4,3.8C12.4,53.3,11,56.5,11,60c0,0.6,0.4,1,1,1h40    c0.6,0,1-0.4,1-1C53,53.1,47.6,47.5,40.8,47z M40.7,59H23.3c-4.9-2.6-4.4-8.1-4.3-8.8c1.5-0.8,3.2-1.2,5-1.2h1    c1.9,1.7,4.1,3.1,6.7,3.9c0.1,0,0.2,0.1,0.3,0.1s0.2,0,0.3-0.1c2.5-0.8,4.8-2.2,6.7-3.9h1c1.8,0,3.5,0.4,5,1.2    C45,50.7,45.6,56.4,40.7,59z M25,29h14v6c0,0.6-0.4,1-1,1H26c-0.6,0-1-0.4-1-1V29z M20,27h-1h-2v-2h30v2h-2h-1H20z M45,33v-4    c1.1,0,2,0.9,2,2S46.1,33,45,33z M49,12c0.6,0,1,0.4,1,1s-0.4,1-1,1s-1-0.4-1-1S48.4,12,49,12z M42,7c0.6,0,1,0.4,1,1s-0.4,1-1,1    c-0.3,0-0.5-0.1-0.7-0.3c0,0,0,0,0,0s0,0,0,0C41.1,8.5,41,8.3,41,8C41,7.4,41.4,7,42,7z M32,5c0.6,0,1,0.4,1,1s-0.4,1-1,1    s-1-0.4-1-1S31.4,5,32,5z M22,7c0.6,0,1,0.4,1,1c0,0.3-0.1,0.5-0.3,0.7c0,0,0,0,0,0s0,0,0,0C22.5,8.9,22.3,9,22,9    c-0.6,0-1-0.4-1-1S21.4,7,22,7z M14,13c0-0.6,0.4-1,1-1s1,0.4,1,1s-0.4,1-1,1S14,13.6,14,13z M16.9,15.3c0.1-0.1,0.2-0.2,0.3-0.3    l4.4,1.9C21.7,17,21.9,17,22,17c0.2,0,0.4-0.1,0.6-0.2c0.3-0.2,0.4-0.5,0.4-0.8v-5.2c0.1,0,0.2-0.1,0.3-0.1l4,4    c0.2,0.2,0.4,0.3,0.7,0.3c0.1,0,0.1,0,0.2,0c0.3-0.1,0.6-0.3,0.7-0.5L31.6,9c0.1,0,0.2,0,0.4,0s0.2,0,0.4,0l2.7,5.5    c0.1,0.3,0.4,0.5,0.7,0.5c0.1,0,0.1,0,0.2,0c0.3,0,0.5-0.1,0.7-0.3l4-4c0.1,0,0.2,0.1,0.3,0.1V16c0,0.3,0.2,0.6,0.4,0.8    c0.2,0.1,0.4,0.2,0.6,0.2c0.1,0,0.3,0,0.4-0.1l4.4-1.9c0.1,0.1,0.2,0.2,0.3,0.3L45.2,23H18.8L16.9,15.3z M17,31c0-1.1,0.9-2,2-2v4    C17.9,33,17,32.1,17,31z M21,34v-5h2v6c0,1.7,1.3,3,3,3h12c1.7,0,3-1.3,3-3v-6h2v5v1.4c0,7-4.4,13.2-11,15.6    c-6.6-2.3-11-8.6-11-15.6V34z M16.2,52.2c0.2-0.2,0.5-0.5,0.7-0.7c0.1,1.9,0.6,5,3,7.5H13C13.3,56.4,14.4,54.1,16.2,52.2z M44,59    c2.4-2.4,2.9-5.6,3-7.5c2.2,1.8,3.7,4.5,4,7.5H44z"></path></g></g><g id="castle"></g></svg>