<svg xmlns="http://www.w3.org/2000/svg" xmlns:xlink="http://www.w3.org/1999/xlink" version="1.1" viewBox="0 0 64 64" style="enable-background:new 0 0 64 64;" xml:space="preserve"><g id="flag"></g><g id="dwarf"></g><g id="weapon"></g><g id="magic_potion"></g><g id="magic_fire"></g><g id="elf"></g><g id="crown"></g><g id="tower"></g><g id="magic_broom"><g><path d="M59.6,4.4C58.6,3.5,57.3,3,56,3c-1.3,0-2.6,0.6-3.5,1.6l-19,21.4l0,0c-1.2-1.2-3.1-1.2-4.2,0l-1.5,1.5c0,0,0,0,0,0.1    c-2.5-0.4-7.2-0.7-12,1.9c-0.3,0.2-0.5,0.5-0.5,0.9c0,0.4,0.3,0.7,0.6,0.9l2.4,1C16.4,33,14,34.2,12,36.2c-0.3,0.3-0.4,0.7-0.2,1    s0.4,0.6,0.8,0.7l3.1,0.4c-1.7,2.1-4.1,6.2-2.6,11.9c0.1,0.4,0.4,0.6,0.7,0.7c5.7,1.5,9.9-0.9,11.9-2.6l0.4,3.1    c0.1,0.4,0.3,0.7,0.7,0.8c0.1,0,0.2,0.1,0.3,0.1c0.3,0,0.5-0.1,0.7-0.3c2-2,3.2-4.5,3.8-6.3l1,2.4c0.1,0.4,0.5,0.6,0.9,0.6    c0.4,0,0.7-0.2,0.9-0.5c2.7-4.8,2.4-9.5,1.9-12c0,0,0,0,0.1,0l1.5-1.5c1.2-1.2,1.2-3.1,0-4.2l0,0l21.4-19c1-0.9,1.6-2.2,1.6-3.5    C61,6.7,60.5,5.4,59.6,4.4z M33.6,45.3l-1.3-3c-0.2-0.4-0.6-0.7-1-0.6c-0.4,0.1-0.8,0.4-0.9,0.8c0,0-0.5,3.4-2.7,6.5l-0.4-2.8    c-0.1-0.4-0.3-0.7-0.7-0.8c-0.4-0.1-0.8,0-1,0.3c0,0.1-4.1,4.9-10.8,3.5c-1.4-6.7,3.3-10.6,3.5-10.8c0.3-0.3,0.4-0.7,0.3-1    s-0.4-0.7-0.8-0.7L15,36.2c3-2.1,6.4-2.7,6.5-2.7c0.4-0.1,0.8-0.4,0.8-0.9c0.1-0.4-0.2-0.9-0.6-1l-3-1.3c4.7-1.8,9-0.8,10-0.5    l5.4,5.4C34.4,36.2,35.4,40.6,33.6,45.3z M36.5,33.3L35.8,34L30,28.2l0.8-0.8c0.4-0.4,1-0.4,1.4,0l0.8,0.8l2.9,2.9l0.8,0.8    c0.2,0.2,0.3,0.4,0.3,0.7S36.7,33.1,36.5,33.3z M58,10L36.5,29L35,27.5L54,6c0.5-0.6,1.3-0.9,2-1c0.8,0,1.5,0.3,2.1,0.8    C58.7,6.4,59,7.1,59,7.9C59,8.7,58.6,9.4,58,10z"></path><path d="M4,39.3c0.3,0,0.5-0.1,0.7-0.3L22,21.7c0.4-0.4,0.4-1,0-1.4s-1-0.4-1.4,0L3.3,37.6c-0.4,0.4-0.4,1,0,1.4    C3.5,39.2,3.7,39.3,4,39.3z"></path><path d="M42.3,42L25,59.3c-0.4,0.4-0.4,1,0,1.4c0.2,0.2,0.5,0.3,0.7,0.3s0.5-0.1,0.7-0.3l17.3-17.3c0.4-0.4,0.4-1,0-1.4    S42.7,41.6,42.3,42z"></path><path d="M57.4,19.6L45.9,31.1c-0.4,0.4-0.4,1,0,1.4c0.2,0.2,0.5,0.3,0.7,0.3s0.5-0.1,0.7-0.3L58.9,21c0.4-0.4,0.4-1,0-1.4    S57.8,19.2,57.4,19.6z"></path><path d="M11.3,51.3l-8,8c-0.4,0.4-0.4,1,0,1.4C3.5,60.9,3.7,61,4,61s0.5-0.1,0.7-0.3l8-8c0.4-0.4,0.4-1,0-1.4S11.7,50.9,11.3,51.3    z"></path><path d="M32.2,18.4c0.3,0,0.5-0.1,0.7-0.3L44.4,6.6c0.4-0.4,0.4-1,0-1.4s-1-0.4-1.4,0L31.5,16.7c-0.4,0.4-0.4,1,0,1.4    C31.6,18.3,31.9,18.4,32.2,18.4z"></path></g></g><g id="knight"></g><g id="magic_book"></g><g id="unicorn"></g><g id="wizard"></g><g id="witch"></g><g id="magic_wand"></g><g id="queen"></g><g id="forest"></g><g id="home_tree"></g><g id="king"></g><g id="castle"></g></svg>