<svg xmlns="http://www.w3.org/2000/svg" xmlns:xlink="http://www.w3.org/1999/xlink" version="1.1" viewBox="0 0 64 64" style="enable-background:new 0 0 64 64;" xml:space="preserve"><g id="flag"></g><g id="dwarf"></g><g id="weapon"></g><g id="magic_potion"></g><g id="magic_fire"></g><g id="elf"></g><g id="crown"></g><g id="tower"></g><g id="magic_broom"></g><g id="knight"></g><g id="magic_book"></g><g id="unicorn"></g><g id="wizard"></g><g id="witch"></g><g id="magic_wand"><g><path d="M34.5,11.5c-3.8,3.8-4.7,9.5-2.6,14.2L10.1,49.1C9.8,49,9.4,49,9,49c-1.6,0-3.1,0.6-4.2,1.8S3,53.4,3,55s0.6,3.1,1.8,4.2    S7.4,61,9,61s3.1-0.6,4.2-1.8S15,56.6,15,55c0-0.4,0-0.8-0.1-1.1l23.4-21.8c1.6,0.7,3.4,1.1,5.2,1.1c0.3,0,0.5,0,0.8,0    c0.5,0,0.9-0.4,0.9-0.9c0-0.5-0.3-1-0.8-1c-1.3-0.2-2.6-0.8-3.6-1.7l1.7-1.7c1,0.7,2.2,1.1,3.5,1.1c1.6,0,3.1-0.6,4.2-1.8    S52,24.6,52,23c0-1.3-0.4-2.5-1.1-3.5l1.7-1.7c0.8,1.1,1.4,2.3,1.6,3.6c0.1,0.5,0.5,0.9,1,0.8c0.5,0,0.9-0.4,0.9-0.9    c0.2-3.6-1.1-7.2-3.7-9.8C47.6,6.5,39.5,6.5,34.5,11.5z M11.8,57.8c-1.6,1.6-4.1,1.6-5.7,0s-1.6-4.1,0-5.7C7,51.4,8,51,9,51    s2,0.4,2.8,1.2C13.4,53.7,13.4,56.3,11.8,57.8z M14.1,51.9c-0.2-0.4-0.5-0.8-0.9-1.1s-0.7-0.6-1.1-0.9L33,27.5    c0.5,0.7,1,1.3,1.6,1.9c0.6,0.6,1.2,1.1,1.9,1.6L14.1,51.9z M46,17c-1.6,0-3.1,0.6-4.2,1.8S40,21.4,40,23c0,1.3,0.4,2.5,1.1,3.5    l-1.7,1.7c-2.6-3.3-2.4-8.1,0.7-11.1c3-3,7.8-3.2,11.1-0.7l-1.7,1.7C48.5,17.4,47.3,17,46,17z M48.8,25.8c-1.6,1.6-4.1,1.6-5.7,0    s-1.6-4.1,0-5.7C44,19.4,45,19,46,19s2,0.4,2.8,1.2C50.4,21.7,50.4,24.3,48.8,25.8z M38.7,15.6c-3.9,3.9-4,10.1-0.5,14.2    c-0.8-0.5-1.6-1-2.2-1.7c-4.2-4.2-4.2-11,0-15.2c2.1-2.1,4.8-3.1,7.6-3.1c2.7,0,5.5,1,7.6,3.1c0.7,0.7,1.3,1.4,1.7,2.2    C48.8,11.6,42.6,11.7,38.7,15.6z"></path><path d="M44,7c0.6,0,1-0.4,1-1V4c0-0.6-0.4-1-1-1s-1,0.4-1,1v2C43,6.6,43.4,7,44,7z"></path><path d="M44,34c-0.6,0-1,0.4-1,1v2c0,0.6,0.4,1,1,1s1-0.4,1-1v-2C45,34.4,44.6,34,44,34z"></path><path d="M60,19h-2c-0.6,0-1,0.4-1,1s0.4,1,1,1h2c0.6,0,1-0.4,1-1S60.6,19,60,19z"></path><path d="M27,21h2c0.6,0,1-0.4,1-1s-0.4-1-1-1h-2c-0.6,0-1,0.4-1,1S26.4,21,27,21z"></path><path d="M53.8,11.2c0.3,0,0.5-0.1,0.7-0.3l1.4-1.4c0.4-0.4,0.4-1,0-1.4s-1-0.4-1.4,0l-1.4,1.4c-0.4,0.4-0.4,1,0,1.4    C53.3,11.1,53.5,11.2,53.8,11.2z"></path><path d="M54.5,29.7c-0.4-0.4-1-0.4-1.4,0s-0.4,1,0,1.4l1.4,1.4c0.2,0.2,0.5,0.3,0.7,0.3s0.5-0.1,0.7-0.3c0.4-0.4,0.4-1,0-1.4    L54.5,29.7z"></path><path d="M32.2,10.2c0.2,0.2,0.5,0.3,0.7,0.3s0.5-0.1,0.7-0.3c0.4-0.4,0.4-1,0-1.4l-1.4-1.4c-0.4-0.4-1-0.4-1.4,0s-0.4,1,0,1.4    L32.2,10.2z"></path></g></g><g id="queen"></g><g id="forest"></g><g id="home_tree"></g><g id="king"></g><g id="castle"></g></svg>